HIERARCHY
ROOT Hips
{
  OFFSET -1.06218 88.2488 0.621543
  CHANNELS 6 Xposition Yposition Zposition Zrotation Xrotation Yrotation
  JOINT Spine
  {
    OFFSET 0 10.1816 0.1315
    CHANNELS 6 Xposition Yposition Zposition Zrotation Xrotation Yrotation
    JOINT Spine1
    {
      OFFSET 0 10.0835 -1.0008
      CHANNELS 6 Xposition Yposition Zposition Zrotation Xrotation Yrotation
      JOINT Spine2
      {
        OFFSET 0 9.1 -1.3734
        CHANNELS 6 Xposition Yposition Zposition Zrotation Xrotation Yrotation
        JOINT Neck
        {
          OFFSET 0 16.6717 -2.5162
          CHANNELS 6 Xposition Yposition Zposition Zrotation Xrotation Yrotation
          JOINT Head
          {
            OFFSET 0 9.6179 1.685
            CHANNELS 6 Xposition Yposition Zposition Zrotation Xrotation Yrotation
            JOINT HeadTop_End
            {
              OFFSET 0 17.8152 2.585
              CHANNELS 6 Xposition Yposition Zposition Zrotation Xrotation Yrotation
              End Site
              {
                OFFSET 0 0 0
              }
            }
            JOINT LeftEye
            {
              OFFSET 3.0676 6.4095 9.2836
              CHANNELS 6 Xposition Yposition Zposition Zrotation Xrotation Yrotation
              End Site
              {
                OFFSET 0 0 0
              }
            }
            JOINT RightEye
            {
              OFFSET -3.0676 6.4095 9.2835
              CHANNELS 6 Xposition Yposition Zposition Zrotation Xrotation Yrotation
              End Site
              {
                OFFSET 0 0 0
              }
            }
          }
        }
        JOINT LeftShoulder
        {
          OFFSET 4.5704 10.946 -2.628
          CHANNELS 6 Xposition Yposition Zposition Zrotation Xrotation Yrotation
          JOINT LeftArm
          {
            OFFSET 10.5924 -0.5246 -2.2321
            CHANNELS 6 Xposition Yposition Zposition Zrotation Xrotation Yrotation
            JOINT LeftForeArm
            {
              OFFSET 27.8415 -0.0001 0
              CHANNELS 6 Xposition Yposition Zposition Zrotation Xrotation Yrotation
              JOINT LeftHand
              {
                OFFSET 28.3288 0 0
                CHANNELS 6 Xposition Yposition Zposition Zrotation Xrotation Yrotation
                JOINT LeftHandThumb1
                {
                  OFFSET 2.4661 -1.575 2.6824
                  CHANNELS 6 Xposition Yposition Zposition Zrotation Xrotation Yrotation
                  JOINT LeftHandThumb2
                  {
                    OFFSET 3.2298 -1.8647 1.8647
                    CHANNELS 6 Xposition Yposition Zposition Zrotation Xrotation Yrotation
                    JOINT LeftHandThumb3
                    {
                      OFFSET 2.6526 -1.5315 1.5315
                      CHANNELS 6 Xposition Yposition Zposition Zrotation Xrotation Yrotation
                      End Site
                      {
                        OFFSET 1.9546 -1.1285 1.1285
                      }
                    }
                  }
                }
                JOINT LeftHandIndex1
                {
                  OFFSET 9.1093 -0.5171 2.2601
                  CHANNELS 6 Xposition Yposition Zposition Zrotation Xrotation Yrotation
                  JOINT LeftHandIndex2
                  {
                    OFFSET 3.6764 0 0
                    CHANNELS 6 Xposition Yposition Zposition Zrotation Xrotation Yrotation
                    JOINT LeftHandIndex3
                    {
                      OFFSET 2.8831 0 0
                      CHANNELS 6 Xposition Yposition Zposition Zrotation Xrotation Yrotation
                      End Site
                      {
                        OFFSET 2.3927 0 0
                      }
                    }
                  }
                }
                JOINT LeftHandMiddle1
                {
                  OFFSET 9.5334 0 0
                  CHANNELS 6 Xposition Yposition Zposition Zrotation Xrotation Yrotation
                  JOINT LeftHandMiddle2
                  {
                    OFFSET 3.6982 0 0
                    CHANNELS 6 Xposition Yposition Zposition Zrotation Xrotation Yrotation
                    JOINT LeftHandMiddle3
                    {
                      OFFSET 2.9509 0 0
                      CHANNELS 6 Xposition Yposition Zposition Zrotation Xrotation Yrotation
                      End Site
                      {
                        OFFSET 2.8339 0 0
                      }
                    }
                  }
                }
                JOINT LeftHandRing1
                {
                  OFFSET 9.1045 -0.0439 -1.8651
                  CHANNELS 6 Xposition Yposition Zposition Zrotation Xrotation Yrotation
                  JOINT LeftHandRing2
                  {
                    OFFSET 3.154 0 0
                    CHANNELS 6 Xposition Yposition Zposition Zrotation Xrotation Yrotation
                    JOINT LeftHandRing3
                    {
                      OFFSET 2.9377 0 0
                      CHANNELS 6 Xposition Yposition Zposition Zrotation Xrotation Yrotation
                      End Site
                      {
                        OFFSET 2.6475 0 0
                      }
                    }
                  }
                }
                JOINT LeftHandPinky1
                {
                  OFFSET 8.0778 -0.4887 -3.8061
                  CHANNELS 6 Xposition Yposition Zposition Zrotation Xrotation Yrotation
                  JOINT LeftHandPinky2
                  {
                    OFFSET 3.6 0 0
                    CHANNELS 6 Xposition Yposition Zposition Zrotation Xrotation Yrotation
                    JOINT LeftHandPinky3
                    {
                      OFFSET 2.1142 0 0
                      CHANNELS 6 Xposition Yposition Zposition Zrotation Xrotation Yrotation
                      End Site
                      {
                        OFFSET 1.9757 0 0
                      }
                    }
                  }
                }
              }
            }
          }
        }
        JOINT RightShoulder
        {
          OFFSET -4.57 10.9462 -2.628
          CHANNELS 6 Xposition Yposition Zposition Zrotation Xrotation Yrotation
          JOINT RightArm
          {
            OFFSET -10.5928 -0.5248 -2.2321
            CHANNELS 6 Xposition Yposition Zposition Zrotation Xrotation Yrotation
            JOINT RightForeArm
            {
              OFFSET -27.8415 0 0
              CHANNELS 6 Xposition Yposition Zposition Zrotation Xrotation Yrotation
              JOINT RightHand
              {
                OFFSET -28.3288 0 0.0001
                CHANNELS 6 Xposition Yposition Zposition Zrotation Xrotation Yrotation
                JOINT RightHandPinky1
                {
                  OFFSET -8.0767 -0.4885 -3.806
                  CHANNELS 6 Xposition Yposition Zposition Zrotation Xrotation Yrotation
                  JOINT RightHandPinky2
                  {
                    OFFSET -3.6 0 0.0001
                    CHANNELS 6 Xposition Yposition Zposition Zrotation Xrotation Yrotation
                    JOINT RightHandPinky3
                    {
                      OFFSET -2.1142 0 0
                      CHANNELS 6 Xposition Yposition Zposition Zrotation Xrotation Yrotation
                      End Site
                      {
                        OFFSET -1.9757 0 0
                      }
                    }
                  }
                }
                JOINT RightHandRing1
                {
                  OFFSET -9.1036 -0.0439 -1.8651
                  CHANNELS 6 Xposition Yposition Zposition Zrotation Xrotation Yrotation
                  JOINT RightHandRing2
                  {
                    OFFSET -3.154 0 0
                    CHANNELS 6 Xposition Yposition Zposition Zrotation Xrotation Yrotation
                    JOINT RightHandRing3
                    {
                      OFFSET -2.9377 0 0
                      CHANNELS 6 Xposition Yposition Zposition Zrotation Xrotation Yrotation
                      End Site
                      {
                        OFFSET -2.6475 0 0
                      }
                    }
                  }
                }
                JOINT RightHandMiddle1
                {
                  OFFSET -9.5325 0 0
                  CHANNELS 6 Xposition Yposition Zposition Zrotation Xrotation Yrotation
                  JOINT RightHandMiddle2
                  {
                    OFFSET -3.6982 0 0
                    CHANNELS 6 Xposition Yposition Zposition Zrotation Xrotation Yrotation
                    JOINT RightHandMiddle3
                    {
                      OFFSET -2.9509 0 0
                      CHANNELS 6 Xposition Yposition Zposition Zrotation Xrotation Yrotation
                      End Site
                      {
                        OFFSET -2.8339 0 0.0001
                      }
                    }
                  }
                }
                JOINT RightHandIndex1
                {
                  OFFSET -9.1083 -0.5168 2.2601
                  CHANNELS 6 Xposition Yposition Zposition Zrotation Xrotation Yrotation
                  JOINT RightHandIndex2
                  {
                    OFFSET -3.6764 0 0
                    CHANNELS 6 Xposition Yposition Zposition Zrotation Xrotation Yrotation
                    JOINT RightHandIndex3
                    {
                      OFFSET -2.8831 0 0
                      CHANNELS 6 Xposition Yposition Zposition Zrotation Xrotation Yrotation
                      End Site
                      {
                        OFFSET -2.3927 0 0
                      }
                    }
                  }
                }
                JOINT RightHandThumb1
                {
                  OFFSET -2.4648 -1.5727 2.6826
                  CHANNELS 6 Xposition Yposition Zposition Zrotation Xrotation Yrotation
                  JOINT RightHandThumb2
                  {
                    OFFSET -3.2298 -1.8647 1.8647
                    CHANNELS 6 Xposition Yposition Zposition Zrotation Xrotation Yrotation
                    JOINT RightHandThumb3
                    {
                      OFFSET -2.6526 -1.5314 1.5314
                      CHANNELS 6 Xposition Yposition Zposition Zrotation Xrotation Yrotation
                      End Site
                      {
                        OFFSET -1.9546 -1.1285 1.1285
                      }
                    }
                  }
                }
              }
            }
          }
        }
      }
    }
  }
  JOINT LeftUpLeg
  {
    OFFSET 8.2078 -6.7517 -1.5996
    CHANNELS 6 Xposition Yposition Zposition Zrotation Xrotation Yrotation
    JOINT LeftLeg
    {
      OFFSET 0 -44.3705 0.2846
      CHANNELS 6 Xposition Yposition Zposition Zrotation Xrotation Yrotation
      JOINT LeftFoot
      {
        OFFSET 0 -44.4279 -2.9822
        CHANNELS 6 Xposition Yposition Zposition Zrotation Xrotation Yrotation
        JOINT LeftToeBase
        {
          OFFSET 0 -8.7287 10.7106
          CHANNELS 6 Xposition Yposition Zposition Zrotation Xrotation Yrotation
          End Site
          {
            OFFSET 0 -0.0007 9.2781
          }
        }
      }
    }
  }
  JOINT RightUpLeg
  {
    OFFSET -8.2078 -6.7517 -1.5996
    CHANNELS 6 Xposition Yposition Zposition Zrotation Xrotation Yrotation
    JOINT RightLeg
    {
      OFFSET 0 -44.3705 0.2862
      CHANNELS 6 Xposition Yposition Zposition Zrotation Xrotation Yrotation
      JOINT RightFoot
      {
        OFFSET 0 -44.4277 -2.9838
        CHANNELS 6 Xposition Yposition Zposition Zrotation Xrotation Yrotation
        JOINT RightToeBase
        {
          OFFSET 0 -8.7287 10.7106
          CHANNELS 6 Xposition Yposition Zposition Zrotation Xrotation Yrotation
          End Site
          {
            OFFSET 0 -0.0007 9.2781
          }
        }
      }
    }
  }
}
MOTION
Frames:	4
Frame Time:	0.0333333
-1.06218 88.2488 0.621543 0.0522231 -5.45314 -46.3231 -8.88178e-016 10.1816 0.1315 -1.95697 9.24296 7.5527 4.44089e-016 10.0835 -1.0008 -0.916152 2.17162 1.02474 0 9.1 -1.3734 -0.894672 2.18722 1.01704 0 16.6717 -2.5162 4.419 1.12137 13.174 0 9.6179 1.685 -3.91066 7.47952 20.6962 0 17.8152 2.585 -7.95139e-016 0 -0 3.0676 6.4095 9.2836 -7.95139e-016 0 -0 -3.0676 6.4095 9.2835 -7.95139e-016 0 -0 4.5704 10.946 -2.628 -8.61708 0.572558 3.67365 10.5924 -0.5246 -2.2321 -67.9227 -32.7083 -45.2099 27.8415 -0.0001 1.42109e-014 -0.000274658 -2.34747e-014 -106.358 28.3288 -7.10543e-015 -3.55271e-015 -15.7588 4.04095 -6.87556 2.4661 -1.575 2.6824 -6.63197 -4.74549 -12.3323 3.2298 -1.8647 1.8647 2.55315 12.2142 42.1049 2.6526 -1.5315 1.5315 27.259 3.36614 7.40136 9.1093 -0.5171 2.2601 -45.7589 -2.23587 2.52046 3.6764 0 -7.10543e-015 -87.4947 -5.59999 5.84994 2.8831 0 -7.10543e-015 -50.6978 -2.14594 4.52795 9.5334 -1.42109e-014 -7.10543e-015 -39.6749 -2.80327 2.6451 3.6982 -2.84217e-014 -7.10543e-015 -95.2415 -6.38928 5.83098 2.9509 -3.55271e-015 -7.10543e-015 -50.9569 -2.16649 4.5447 9.1045 -0.0439 -1.8651 -39.6804 -2.80955 4.10363 3.154 0 0 -112.738 -8.10918 5.39906 2.9377 0 0 -62.7352 -3.17331 5.20309 8.0778 -0.4887 -3.8061 -45.2613 -9.0738 3.70032 3.6 -2.84217e-014 -7.10543e-015 -84.4662 -5.2916 5.82817 2.1142 7.10543e-015 7.10543e-015 -118.594 -8.6439 5.13933 -4.57 10.9462 -2.628 -5.23542 1.81436 13.2489 -10.5928 -0.5248 -2.2321 64.7892 12.3416 53.0667 -27.8415 0 0 -2.93371e-005 -8.40569e-006 105.988 -28.3288 -7.10543e-015 0.0001 8.39647 -5.59458 18.5713 -8.0767 -0.4885 -3.806 44.7284 -8.61532 -2.74384 -3.6 1.42109e-014 0.0001 84.6743 -4.21327 -4.62547 -2.1142 0 -7.10543e-015 118.833 -6.87902 -4.06873 -9.1036 -0.0439 -1.8651 39.0499 -2.43996 -3.23941 -3.154 0 1.42109e-014 112.98 -6.45457 -4.27631 -2.9377 -3.55271e-015 0 62.8855 -2.52845 -4.1342 -9.5325 1.42109e-014 -7.10543e-015 39.0138 -2.43242 -1.78259 -3.6982 0 0 95.4704 -5.08797 -4.62451 -2.9509 0 3.55271e-015 51.0734 -1.72639 -3.6146 -9.1083 -0.5168 2.2601 45.088 -1.76924 -1.57656 -3.6764 0 0 87.7094 -4.46023 -4.64199 -2.8831 -7.10543e-015 -3.55271e-015 50.8136 -1.71002 -3.59929 -2.4648 -1.5727 2.6826 7.22015 -5.53918 14.5729 -3.2298 -1.8647 1.8647 -2.83542 12.5798 -43.9355 -2.6526 -1.5314 1.5314 -28.1821 6.87895 -12.8222 8.2078 -6.7517 -1.5996 18.4134 -27.921 17.8669 0 -44.3705 0.2846 8.07758 58.2062 -13.1879 -7.10543e-015 -44.4279 -2.9822 -14.4915 -21.5771 -13.9736 0 -8.7287 10.7106 3.90665e-006 -1.59404 1.08027e-007 -8.2078 -6.7517 -1.5996 -28.3979 -17.7174 -21.5917 0 -44.3705 0.2862 -14.3751 57.9413 2.41691 0 -44.4277 -2.9838 22.3158 -24.8467 3.83544 7.10543e-015 -8.7287 10.7106 -3.1756e-006 -0.013 1.42454e-006 
-0.964785 88.1293 1.50208 0.147227 -5.44263 -46.3686 -8.88178e-016 10.1816 0.1315 -2.135 9.54507 7.53921 -8.88178e-016 10.0835 -1.0008 -0.872991 2.17713 1.01641 0 9.1 -1.3734 -0.852543 2.19135 1.00992 0 16.6717 -2.5162 4.47297 0.946928 13.3683 0 9.6179 1.685 -3.81852 7.19431 20.714 0 17.8152 2.585 -2.48481e-015 3.18055e-015 -3.97569e-016 3.0676 6.4095 9.2836 -2.48481e-015 3.18055e-015 -3.97569e-016 -3.0676 6.4095 9.2835 -2.48481e-015 3.18055e-015 -3.97569e-016 4.5704 10.946 -2.628 -8.75978 0.632492 3.65797 10.5924 -0.5246 -2.2321 -67.6055 -32.0168 -44.3137 27.8415 -0.0001 0 -0.000288248 1.22488e-005 -105.52 28.3288 0 1.06581e-014 -16.3237 4.38558 -6.88359 2.4661 -1.575 2.6824 -6.63197 -4.74549 -12.3323 3.2298 -1.8647 1.8647 2.55315 12.2142 42.1049 2.6526 -1.5315 1.5315 27.259 3.36614 7.40136 9.1093 -0.5171 2.2601 -45.7589 -2.23587 2.52046 3.6764 0 0 -87.4947 -5.59999 5.84994 2.8831 0 0 -50.6978 -2.14594 4.52795 9.5334 1.42109e-014 0 -39.6749 -2.80327 2.6451 3.6982 0 -1.42109e-014 -95.2415 -6.38928 5.83098 2.9509 0 -7.10543e-015 -50.9569 -2.16649 4.5447 9.1045 -0.0439 -1.8651 -39.6804 -2.80955 4.10363 3.154 0 -2.13163e-014 -112.738 -8.10918 5.39906 2.9377 0 7.10543e-015 -62.7352 -3.17331 5.20309 8.0778 -0.4887 -3.8061 -45.2613 -9.0738 3.70032 3.6 0 1.42109e-014 -84.4662 -5.2916 5.82817 2.1142 0 -7.10543e-015 -118.594 -8.6439 5.13933 -4.57 10.9462 -2.628 -5.06964 1.83524 13.0895 -10.5928 -0.5248 -2.2321 64.157 13.4944 53.2832 -27.8415 0 0 3.10315e-005 -3.92678e-006 104.913 -28.3288 -7.10543e-015 0.0001 7.63879 -5.87151 18.0621 -8.0767 -0.4885 -3.806 44.7284 -8.61532 -2.74384 -3.6 -1.42109e-014 0.0001 84.6743 -4.21327 -4.62547 -2.1142 0 0 118.833 -6.87902 -4.06873 -9.1036 -0.0439 -1.8651 39.0499 -2.43996 -3.23941 -3.154 1.42109e-014 -7.10543e-015 112.98 -6.45457 -4.27631 -2.9377 0 3.55271e-015 62.8855 -2.52845 -4.1342 -9.5325 -1.42109e-014 -7.10543e-015 39.0138 -2.43242 -1.78259 -3.6982 -1.42109e-014 0 95.4704 -5.08797 -4.62451 -2.9509 0 1.42109e-014 51.0734 -1.72639 -3.6146 -9.1083 -0.5168 2.2601 45.088 -1.76924 -1.57656 -3.6764 0 7.10543e-015 87.7094 -4.46023 -4.64199 -2.8831 -7.10543e-015 0 50.8136 -1.71002 -3.59929 -2.4648 -1.5727 2.6826 7.22015 -5.53918 14.5729 -3.2298 -1.8647 1.8647 -2.83542 12.5798 -43.9355 -2.6526 -1.5314 1.5314 -28.1821 6.87895 -12.8222 8.2078 -6.7517 -1.5996 17.8566 -28.4886 17.5276 -3.55271e-015 -44.3705 0.2846 8.51591 59.5874 -13.5388 0 -44.4279 -2.9822 -14.7672 -21.439 -13.5678 0 -8.7287 10.7106 3.37002e-006 -2.91597 -7.07633e-006 -8.2078 -6.7517 -1.5996 -28.5804 -17.3189 -21.1958 -3.55271e-015 -44.3705 0.2862 -14.6771 57.4318 3.36139 7.10543e-015 -44.4277 -2.9838 22.7391 -24.9673 3.13398 -7.10543e-015 -8.7287 10.7106 2.41095e-006 -0.241462 -4.18145e-005 
-0.829117 87.9269 2.4432 0.144956 -5.40453 -46.5114 8.88178e-016 10.1816 0.1315 -2.0338 9.87626 7.66638 0 10.0835 -1.0008 -0.870853 2.14202 1.03464 0 9.1 -1.3734 -0.852008 2.1559 1.02772 8.88178e-016 16.6717 -2.5162 4.47337 0.82633 13.559 -3.55271e-015 9.6179 1.685 -3.69259 6.88803 20.7287 0 17.8152 2.585 2.98177e-016 -3.18055e-015 -3.97569e-016 3.0676 6.4095 9.2836 2.98177e-016 -3.18055e-015 -3.97569e-016 -3.0676 6.4095 9.2835 2.98177e-016 -3.18055e-015 -3.97569e-016 4.5704 10.946 -2.628 -8.91569 0.675421 3.68916 10.5924 -0.5246 -2.2321 -67.1508 -31.7749 -43.3249 27.8415 -0.0001 -1.42109e-014 -0.000212121 1.16293e-005 -104.717 28.3288 -7.10543e-015 -1.77636e-014 -16.8414 4.76238 -7.16522 2.4661 -1.575 2.6824 -6.63197 -4.74549 -12.3323 3.2298 -1.8647 1.8647 2.55315 12.2142 42.1049 2.6526 -1.5315 1.5315 27.259 3.36614 7.40136 9.1093 -0.5171 2.2601 -45.7589 -2.23587 2.52046 3.6764 0 -7.10543e-015 -87.4947 -5.59999 5.84994 2.8831 0 0 -50.6978 -2.14594 4.52795 9.5334 0 0 -39.6749 -2.80327 2.6451 3.6982 2.84217e-014 -1.42109e-014 -95.2415 -6.38928 5.83098 2.9509 3.55271e-015 0 -50.9569 -2.16649 4.5447 9.1045 -0.0439 -1.8651 -39.6804 -2.80955 4.10363 3.154 2.84217e-014 7.10543e-015 -112.738 -8.10918 5.39906 2.9377 -1.06581e-014 7.10543e-015 -62.7352 -3.17331 5.20309 8.0778 -0.4887 -3.8061 -45.2613 -9.0738 3.70032 3.6 0 7.10543e-015 -84.4662 -5.2916 5.82817 2.1142 0 0 -118.594 -8.6439 5.13933 -4.57 10.9462 -2.628 -4.87153 1.90167 13.0534 -10.5928 -0.5248 -2.2321 63.2806 14.2832 53.8742 -27.8415 0 -7.10543e-015 2.87153e-005 1.47228e-005 103.958 -28.3288 -7.10543e-015 0.0001 6.62861 -6.59831 17.6309 -8.0767 -0.4885 -3.806 44.7284 -8.61532 -2.74384 -3.6 0 0.0001 84.6743 -4.21327 -4.62547 -2.1142 0 7.10543e-015 118.833 -6.87902 -4.06873 -9.1036 -0.0439 -1.8651 39.0499 -2.43996 -3.23941 -3.154 2.84217e-014 2.13163e-014 112.98 -6.45457 -4.27631 -2.9377 1.77636e-015 -3.55271e-015 62.8855 -2.52845 -4.1342 -9.5325 1.42109e-014 7.10543e-015 39.0138 -2.43242 -1.78259 -3.6982 0 0 95.4704 -5.08797 -4.62451 -2.9509 0 7.10543e-015 51.0734 -1.72639 -3.6146 -9.1083 -0.5168 2.2601 45.088 -1.76924 -1.57656 -3.6764 -1.42109e-014 0 87.7094 -4.46023 -4.64199 -2.8831 0 -1.42109e-014 50.8136 -1.71002 -3.59929 -2.4648 -1.5727 2.6826 7.22015 -5.53918 14.5729 -3.2298 -1.8647 1.8647 -2.83542 12.5798 -43.9355 -2.6526 -1.5314 1.5314 -28.1821 6.87895 -12.8222 8.2078 -6.7517 -1.5996 17.8523 -29.6875 17.2721 0 -44.3705 0.2846 9.20165 62.0272 -14.7581 0 -44.4279 -2.9822 -16.7756 -19.6375 -13.2286 0 -8.7287 10.7106 5.08275e-006 -6.43564 -9.12458e-006 -8.2078 -6.7517 -1.5996 -28.8862 -16.9155 -20.9864 7.10543e-015 -44.3705 0.2862 -14.9992 57.0146 4.09313 -7.10543e-015 -44.4277 -2.9838 23.3332 -24.958 3.00815 7.10543e-015 -8.7287 10.7106 -6.86115e-007 -0.447325 1.17253e-005 
-0.673566 87.5325 3.42558 0.058449 -5.52964 -46.9433 0 10.1816 0.1315 -1.71576 10.3232 8.0387 0 10.0835 -1.0008 -0.933331 2.04091 1.09317 0 9.1 -1.3734 -0.916958 2.05621 1.08319 -4.44089e-016 16.6717 -2.5162 4.38955 0.790612 13.7302 3.55271e-015 9.6179 1.685 -3.59857 6.6425 20.7535 -3.55271e-015 17.8152 2.585 -3.97569e-016 -1.59028e-015 -3.97569e-016 3.0676 6.4095 9.2836 -3.97569e-016 -1.59028e-015 -3.97569e-016 -3.0676 6.4095 9.2835 -3.97569e-016 -1.59028e-015 -3.97569e-016 4.5704 10.946 -2.628 -9.09046 0.688543 3.7972 10.5924 -0.5246 -2.2321 -66.3789 -31.8034 -41.762 27.8415 -0.0001 0 -0.000258929 3.76013e-006 -104.266 28.3288 0 -7.10543e-015 -17.2023 4.86675 -7.74033 2.4661 -1.575 2.6824 -6.63197 -4.74549 -12.3323 3.2298 -1.8647 1.8647 2.55315 12.2142 42.1049 2.6526 -1.5315 1.5315 27.259 3.36614 7.40136 9.1093 -0.5171 2.2601 -45.7589 -2.23587 2.52046 3.6764 0 7.10543e-015 -87.4947 -5.59999 5.84994 2.8831 0 0 -50.6978 -2.14594 4.52795 9.5334 1.42109e-014 7.10543e-015 -39.6749 -2.80327 2.6451 3.6982 -2.84217e-014 -7.10543e-015 -95.2415 -6.38928 5.83098 2.9509 1.77636e-015 -1.42109e-014 -50.9569 -2.16649 4.5447 9.1045 -0.0439 -1.8651 -39.6804 -2.80955 4.10363 3.154 0 -7.10543e-015 -112.738 -8.10918 5.39906 2.9377 0 -7.10543e-015 -62.7352 -3.17331 5.20309 8.0778 -0.4887 -3.8061 -45.2613 -9.0738 3.70032 3.6 0 0 -84.4662 -5.2916 5.82817 2.1142 0 -7.10543e-015 -118.594 -8.6439 5.13933 -4.57 10.9462 -2.628 -4.655 2.0107 13.1855 -10.5928 -0.5248 -2.2321 62.0798 14.8832 54.9059 -27.8415 0 -1.42109e-014 3.05176e-005 5.67063e-013 103.107 -28.3288 -7.10543e-015 0.0001 5.35268 -7.77382 17.241 -8.0767 -0.4885 -3.806 44.7284 -8.61532 -2.74384 -3.6 0 0.0001 84.6743 -4.21327 -4.62547 -2.1142 7.10543e-015 0 118.833 -6.87902 -4.06873 -9.1036 -0.0439 -1.8651 39.0499 -2.43996 -3.23941 -3.154 0 -1.42109e-014 112.98 -6.45457 -4.27631 -2.9377 0 -3.55271e-015 62.8855 -2.52845 -4.1342 -9.5325 -7.10543e-015 0 39.0138 -2.43242 -1.78259 -3.6982 1.42109e-014 -1.42109e-014 95.4704 -5.08797 -4.62451 -2.9509 0 0 51.0734 -1.72639 -3.6146 -9.1083 -0.5168 2.2601 45.088 -1.76924 -1.57656 -3.6764 0 0 87.7094 -4.46023 -4.64199 -2.8831 7.10543e-015 1.42109e-014 50.8136 -1.71002 -3.59929 -2.4648 -1.5727 2.6826 7.22015 -5.53918 14.5729 -3.2298 -1.8647 1.8647 -2.83542 12.5798 -43.9355 -2.6526 -1.5314 1.5314 -28.1821 6.87895 -12.8222 8.2078 -6.7517 -1.5996 18.1418 -31.3587 17.1587 -3.55271e-015 -44.3705 0.2846 10.438 65.6744 -16.5352 3.55271e-015 -44.4279 -2.9822 -18.8493 -17.3915 -12.9245 3.55271e-015 -8.7287 10.7106 -5.48542e-006 -7.41444 -1.76119e-005 -8.2078 -6.7517 -1.5996 -29.6853 -16.6038 -21.0723 -3.55271e-015 -44.3705 0.2862 -15.422 57.0093 4.35806 7.10543e-015 -44.4277 -2.9838 24.3106 -24.6998 4.19566 0 -8.7287 10.7106 7.90189e-009 -0.55428 -2.64051e-005 
